<!--?xml version="1.0" standalone="no"?-->
              <svg id="sw-js-blob-svg" viewBox="0 0 100 100" xmlns="http://www.w3.org/2000/svg" version="1.1">
                    <defs> 
                        <linearGradient id="sw-gradient" x1="0" x2="1" y1="1" y2="0">
                            <stop id="stop1" stop-color="rgba(251, 188, 4, 1)" offset="0%"></stop>
                            <stop id="stop2" stop-color="rgba(251, 188, 4, 1)" offset="100%"></stop>
                        </linearGradient>
                    </defs>
                <path fill="url(#sw-gradient)" d="M16.5,-31.2C20.8,-26,23.3,-20.5,26.5,-15.2C29.7,-9.9,33.5,-5,35.7,1.2C37.9,7.5,38.3,14.9,35.7,21.2C33.2,27.6,27.5,32.7,21,34.2C14.6,35.8,7.3,33.7,-0.4,34.5C-8.2,35.2,-16.3,38.8,-20.8,36.1C-25.3,33.5,-26.1,24.5,-28.9,17.4C-31.7,10.4,-36.5,5.2,-38.4,-1.1C-40.3,-7.4,-39.5,-14.9,-35.9,-20.5C-32.3,-26.2,-25.9,-30.1,-19.5,-34C-13.1,-38,-6.5,-42.1,-0.2,-41.7C6.1,-41.3,12.2,-36.5,16.5,-31.2Z" width="100%" height="100%" transform="translate(50 50)" stroke-width="0" style="transition: all 0.3s ease 0s;" stroke="url(#sw-gradient)"></path>
              </svg>